<svg width="126" height="40" viewBox="0 0 126 40" fill="none" xmlns="http://www.w3.org/2000/svg">
<path d="M117.093 1.35938H109.235C106.86 1.35938 105.032 2.09037 103.936 4.4661L88.9502 38.6401H99.5496C99.5496 38.6401 101.377 34.0714 101.743 32.9749C102.839 32.9749 113.256 32.9749 114.718 32.9749C115.083 34.2541 115.997 38.4573 115.997 38.4573H125.5L117.093 1.35938ZM104.667 25.2994C105.58 23.1065 108.687 14.8828 108.687 14.8828C108.687 15.0655 109.601 12.6898 109.966 11.4105L110.697 14.7C110.697 14.7 112.707 23.6547 113.073 25.4822H104.667V25.2994Z" fill="#3362AB"/>
<path d="M89.6815 26.3963C89.6815 34.0718 82.7371 39.1887 71.9549 39.1887C67.3862 39.1887 63.0002 38.275 60.6245 37.1785L62.0865 28.772L63.3657 29.3203C66.6552 30.7823 68.8482 31.3305 72.8687 31.3305C75.7926 31.3305 78.8994 30.234 78.8994 27.6756C78.8994 26.0308 77.6201 24.9343 73.5997 23.1068C69.7619 21.2794 64.645 18.3554 64.645 13.0557C64.645 5.74573 71.7722 0.811523 81.8233 0.811523C85.6611 0.811523 88.9505 1.54252 90.9608 2.45626L89.4988 10.4972L88.7678 9.7662C86.9403 9.03521 84.5646 8.30421 81.0923 8.30421C77.2546 8.48696 75.4271 10.1317 75.4271 11.5937C75.4271 13.2384 77.6201 14.5177 81.0923 16.1624C86.9403 18.9036 89.6815 22.0104 89.6815 26.3963Z" fill="#3362AB"/>
<path d="M0.5 1.72513L0.682749 0.994141H16.3991C18.5921 0.994141 20.2368 1.72513 20.7851 4.10087L24.2573 20.5482C20.7851 11.7763 12.7442 4.64911 0.5 1.72513Z" fill="#F9B50B"/>
<path d="M46.37 1.35951L30.4709 38.4575H19.6887L10.5513 7.39021C17.1302 11.5934 22.6127 18.1724 24.6229 22.7411L25.7194 26.5788L35.5878 1.17676H46.37V1.35951Z" fill="#3362AB"/>
<path d="M50.573 1.17676H60.6241L54.2279 38.4575H44.1768L50.573 1.17676Z" fill="#3362AB"/>
</svg>
