<svg width="122" height="78" viewBox="0 0 122 78" fill="none" xmlns="http://www.w3.org/2000/svg">
<path d="M76.6498 9.39877L44.3716 9.50977L45.3497 68.603L77.6279 68.492L76.6498 9.39877Z" fill="#FF5F00"/>
<path d="M46.4961 39.175C46.2963 27.156 51.6805 16.4765 60.1138 9.54932C53.7482 4.55418 45.7678 1.55042 37.1169 1.58005C16.6224 1.65024 0.321131 18.5338 0.666757 39.332C1.01238 60.1302 17.873 76.9002 38.3674 76.83C47.0183 76.8004 54.898 73.7423 61.0968 68.7041C52.436 61.94 46.6958 51.1941 46.4961 39.175Z" fill="#EB001B"/>
<path d="M121.333 38.6687C121.679 59.467 105.377 76.3505 84.8827 76.4207C76.2318 76.4503 68.2514 73.4466 61.8858 68.4514C70.4221 61.5239 75.7033 50.8448 75.5036 38.8257C75.3038 26.8066 69.5653 16.1652 60.9028 9.2966C67.1016 4.25842 74.9813 1.20035 83.6322 1.17072C104.127 1.10053 120.989 17.975 121.333 38.6687Z" fill="#F79E1B"/>
</svg>
